<svg width="426" height="179" viewBox="0 0 426 179" fill="none" xmlns="http://www.w3.org/2000/svg">
<path fill-rule="evenodd" clip-rule="evenodd" d="M13.0298 53.7848C21.1324 54.9386 29.2331 55.7408 37.3318 56.2753C37.3694 63.0863 38.9413 66.5909 40.9783 68.4965C40.7165 70.6943 40.5483 73.0721 40.4813 75.6175C40.1892 86.6281 43.3545 90.0065 46.6059 91.3348L45.8334 91.2386C41.5601 90.7063 37.2876 90.1742 33.0196 89.793C26.1536 89.1827 21.6733 98.6841 21.5346 115.024C21.405 129.682 27.2335 130.717 31.2126 131.423C31.4921 131.473 31.7624 131.521 32.0209 131.572C36.4326 132.449 40.8463 133.174 45.2619 133.77C42.3318 137.814 40.5608 145.357 40.413 155.597C40.193 170.254 45.7981 171.326 49.625 172.058C49.8979 172.11 50.1618 172.161 50.4139 172.214C74.6323 177.36 98.9616 177.541 123.277 177.221C130.687 177.124 141.012 177.522 148.084 177.795C151.046 177.909 153.438 178.001 154.805 178.026C155.318 178.033 155.808 177.836 156.253 177.656C156.652 177.495 157.016 177.348 157.33 177.374C168.139 178.363 179.572 178.181 191.013 177.998C197.219 177.899 203.427 177.8 209.539 177.887C212.711 177.935 215.889 177.467 219.065 176.999C220.48 176.79 221.895 176.582 223.309 176.419C226.28 177.337 229.232 176.58 232.174 175.825C233.569 175.468 234.961 175.111 236.352 174.933C247.97 173.449 259.604 173.477 271.242 173.505C275.484 173.515 279.727 173.526 283.97 173.463C290.982 173.357 297.996 173.282 305.01 173.206C323.87 173.002 342.734 172.799 361.591 172.02C362.911 171.968 364.225 172.245 365.535 172.521C369.471 173.349 373.366 174.169 377.237 166.042C377.306 165.903 377.445 165.681 377.514 165.57L377.515 165.57C378.661 163.762 378.78 160.838 378.899 157.92C378.957 156.495 379.015 155.072 379.193 153.78C381.634 135.873 379.831 130.186 372.854 132.807C371.489 133.321 370.044 132.749 368.643 132.194C368.493 132.134 368.343 132.075 368.193 132.017C365.108 130.821 360.208 130.542 356.595 130.337C356.018 130.305 355.473 130.274 354.974 130.241C352.78 130.102 350.47 130.757 348.21 131.398C345.97 132.033 343.779 132.654 341.797 132.474C336.504 131.985 331.215 131.241 325.928 130.444C335.634 130.213 345.339 129.91 355.044 129.463C356.414 129.401 357.782 129.669 359.144 129.937C363.228 130.738 367.272 131.532 371.245 123.388C371.288 123.278 371.393 123.117 371.469 122.999C371.489 122.968 371.508 122.94 371.522 122.916C372.701 121.092 372.807 118.152 372.913 115.222C372.964 113.807 373.015 112.395 373.187 111.112C374.025 104.883 374.343 100.133 374.098 96.6978C377.84 97.476 381.554 97.7293 385.35 90.1957C385.401 90.0949 385.495 89.9503 385.569 89.8362L385.569 89.836L385.57 89.8358C385.598 89.7929 385.623 89.7544 385.642 89.7241C386.837 87.9216 386.995 84.9936 387.153 82.0704C387.229 80.652 387.305 79.2348 387.5 77.9478C387.633 77.076 387.755 76.2331 387.866 75.4186C388.715 74.4466 389.568 73.1787 390.427 71.5391C390.477 71.4383 390.572 71.2934 390.646 71.1792C390.674 71.1363 390.699 71.0977 390.718 71.0674C391.948 69.2785 392.127 66.3566 392.305 63.4412C392.392 62.0166 392.478 60.5936 392.688 59.3051C393.82 52.3025 394.234 47.1652 393.876 43.6573C396.781 43.4996 399.686 43.3341 402.591 43.1598C404.245 43.059 405.903 43.2909 407.555 43.522L407.555 43.522L407.555 43.522L407.555 43.522C412.497 44.2133 417.391 44.8977 421.996 36.6544C422.079 36.5157 422.245 36.2799 422.329 36.169C423.701 34.3205 423.766 31.385 423.832 28.4579C423.863 27.0359 423.895 25.6158 424.076 24.3233C426.601 6.3468 424.173 0.715277 415.518 3.57266C413.837 4.13301 412.033 3.62018 410.267 3.11804L410.267 3.11804L410.267 3.11803L410.267 3.11803C410.065 3.06083 409.865 3.00377 409.665 2.94845C405.774 1.84724 399.622 1.73764 395.094 1.65697C394.375 1.64416 393.697 1.63208 393.075 1.61687C390.324 1.54721 387.453 2.27861 384.645 2.99421C381.861 3.70358 379.138 4.39742 376.652 4.28003C368.202 3.88264 359.745 3.07456 351.289 2.26652C338.494 1.04385 325.699 -0.17874 312.93 0.0216941C298.712 0.238456 284.517 1.70052 270.321 3.16268C259.99 4.22676 249.659 5.2909 239.318 5.87516C225.653 6.65082 211.977 6.94534 198.301 7.23985C185.81 7.50886 173.319 7.77786 160.837 8.41353C151.359 8.89666 141.876 9.0535 132.392 9.21034C112.741 9.53531 93.0878 9.86032 73.4787 13.088C58.714 15.5196 43.758 14.3081 28.8153 13.0978C23.6415 12.6787 18.4693 12.2597 13.3073 11.9922C5.01254 11.5483 -0.188996 21.1746 0.00518634 37.5144C0.18646 52.1592 7.23358 53.0483 12.0403 53.6547C12.3826 53.6979 12.7135 53.7396 13.0298 53.7848Z" fill="#836496"/>
</svg>
