<?xml version="1.0" encoding="UTF-8" standalone="no"?>
<!-- Created with Inkscape (http://www.inkscape.org/) -->

<svg
   version="1.1"
   id="svg1"
   width="1155.5187"
   height="857.052"
   viewBox="0 0 1155.5187 857.05201"
   xmlns="http://www.w3.org/2000/svg"
   xmlns:svg="http://www.w3.org/2000/svg">
  <defs
     id="defs1">
    <clipPath
       clipPathUnits="userSpaceOnUse"
       id="clipPath300">
      <path
         d="M 0,642.789 H 866.639 V 0 H 0 Z"
         transform="translate(-472.33991,-159.4696)"
         id="path300" />
    </clipPath>
    <clipPath
       clipPathUnits="userSpaceOnUse"
       id="clipPath302">
      <path
         d="M 0,642.789 H 866.639 V 0 H 0 Z"
         transform="translate(-498.24281,-174.3447)"
         id="path302" />
    </clipPath>
    <clipPath
       clipPathUnits="userSpaceOnUse"
       id="clipPath304">
      <path
         d="M 0,642.789 H 866.639 V 0 H 0 Z"
         transform="translate(-489.09941,-177.6303)"
         id="path304" />
    </clipPath>
    <clipPath
       clipPathUnits="userSpaceOnUse"
       id="clipPath306">
      <path
         d="M 0,642.789 H 866.639 V 0 H 0 Z"
         transform="translate(-489.35569,-233.14131)"
         id="path306" />
    </clipPath>
    <clipPath
       clipPathUnits="userSpaceOnUse"
       id="clipPath308">
      <path
         d="M 0,642.789 H 866.639 V 0 H 0 Z"
         transform="translate(-450.92449,-196.8481)"
         id="path308" />
    </clipPath>
    <clipPath
       clipPathUnits="userSpaceOnUse"
       id="clipPath310">
      <path
         d="M 0,642.789 H 866.639 V 0 H 0 Z"
         transform="translate(-445.04299,-224.9269)"
         id="path310" />
    </clipPath>
    <clipPath
       clipPathUnits="userSpaceOnUse"
       id="clipPath312">
      <path
         d="M 0,642.789 H 866.639 V 0 H 0 Z"
         transform="translate(-454.50911,-236.5009)"
         id="path312" />
    </clipPath>
    <clipPath
       clipPathUnits="userSpaceOnUse"
       id="clipPath314">
      <path
         d="M 0,642.789 H 866.639 V 0 H 0 Z"
         transform="translate(-469.57601,-235.1296)"
         id="path314" />
    </clipPath>
    <clipPath
       clipPathUnits="userSpaceOnUse"
       id="clipPath316">
      <path
         d="M 0,642.789 H 866.639 V 0 H 0 Z"
         transform="translate(-469.57601,-235.1296)"
         id="path316" />
    </clipPath>
    <clipPath
       clipPathUnits="userSpaceOnUse"
       id="clipPath318">
      <path
         d="M 0,642.789 H 866.639 V 0 H 0 Z"
         transform="translate(-441.99491,-232.5919)"
         id="path318" />
    </clipPath>
    <clipPath
       clipPathUnits="userSpaceOnUse"
       id="clipPath320">
      <path
         d="M 0,642.789 H 866.639 V 0 H 0 Z"
         transform="translate(-499.95641,-243.5719)"
         id="path320" />
    </clipPath>
    <clipPath
       clipPathUnits="userSpaceOnUse"
       id="clipPath322">
      <path
         d="M 0,642.789 H 866.639 V 0 H 0 Z"
         transform="translate(-436.20259,-199.0438)"
         id="path322" />
    </clipPath>
    <clipPath
       clipPathUnits="userSpaceOnUse"
       id="clipPath324">
      <path
         d="M 0,642.789 H 866.639 V 0 H 0 Z"
         transform="translate(-426.90971,-178.0548)"
         id="path324" />
    </clipPath>
    <clipPath
       clipPathUnits="userSpaceOnUse"
       id="clipPath326">
      <path
         d="M 0,642.789 H 866.639 V 0 H 0 Z"
         transform="translate(-457.17364,-162.41871)"
         id="path326" />
    </clipPath>
    <clipPath
       clipPathUnits="userSpaceOnUse"
       id="clipPath328">
      <path
         d="M 0,642.789 H 866.639 V 0 H 0 Z"
         transform="translate(-515.90231,-240.52551)"
         id="path328" />
    </clipPath>
    <clipPath
       clipPathUnits="userSpaceOnUse"
       id="clipPath330">
      <path
         d="M 0,642.789 H 866.639 V 0 H 0 Z"
         transform="translate(-526.06039,-227.5321)"
         id="path330" />
    </clipPath>
    <clipPath
       clipPathUnits="userSpaceOnUse"
       id="clipPath332">
      <path
         d="M 0,642.789 H 866.639 V 0 H 0 Z"
         transform="translate(-528.93581,-213.63801)"
         id="path332" />
    </clipPath>
    <clipPath
       clipPathUnits="userSpaceOnUse"
       id="clipPath334">
      <path
         d="M 0,642.789 H 866.639 V 0 H 0 Z"
         transform="translate(-460.10021,-242.9587)"
         id="path334" />
    </clipPath>
    <clipPath
       clipPathUnits="userSpaceOnUse"
       id="clipPath336">
      <path
         d="M 0,642.789 H 866.639 V 0 H 0 Z"
         transform="translate(-449.64454,-214.4716)"
         id="path336" />
    </clipPath>
    <clipPath
       clipPathUnits="userSpaceOnUse"
       id="clipPath338">
      <path
         d="M 0,642.789 H 866.639 V 0 H 0 Z"
         transform="translate(-467.25289,-225.7063)"
         id="path338" />
    </clipPath>
    <clipPath
       clipPathUnits="userSpaceOnUse"
       id="clipPath340">
      <path
         d="M 0,642.789 H 866.639 V 0 H 0 Z"
         transform="translate(-447.72649,-162.0376)"
         id="path340" />
    </clipPath>
    <clipPath
       clipPathUnits="userSpaceOnUse"
       id="clipPath342">
      <path
         d="M 0,642.789 H 866.639 V 0 H 0 Z"
         transform="translate(-498.31369,-171.7192)"
         id="path342" />
    </clipPath>
    <clipPath
       clipPathUnits="userSpaceOnUse"
       id="clipPath344">
      <path
         d="M 0,642.789 H 866.639 V 0 H 0 Z"
         transform="translate(-437.88574,-190.0212)"
         id="path344" />
    </clipPath>
    <clipPath
       clipPathUnits="userSpaceOnUse"
       id="clipPath346">
      <path
         d="M 0,642.789 H 866.639 V 0 H 0 Z"
         transform="translate(-451.29281,-188.2483)"
         id="path346" />
    </clipPath>
    <clipPath
       clipPathUnits="userSpaceOnUse"
       id="clipPath348">
      <path
         d="M 0,642.789 H 866.639 V 0 H 0 Z"
         transform="translate(-488.64409,-219.39901)"
         id="path348" />
    </clipPath>
    <clipPath
       clipPathUnits="userSpaceOnUse"
       id="clipPath350">
      <path
         d="M 0,642.789 H 866.639 V 0 H 0 Z"
         transform="translate(-490.63534,-213.1741)"
         id="path350" />
    </clipPath>
    <clipPath
       clipPathUnits="userSpaceOnUse"
       id="clipPath352">
      <path
         d="M 0,642.789 H 866.639 V 0 H 0 Z"
         transform="translate(-317.60838,-612.68102)"
         id="path352" />
    </clipPath>
    <clipPath
       clipPathUnits="userSpaceOnUse"
       id="clipPath354">
      <path
         d="M 0,642.789 H 866.639 V 0 H 0 Z"
         transform="translate(-316.38708,-595.07971)"
         id="path354" />
    </clipPath>
    <clipPath
       clipPathUnits="userSpaceOnUse"
       id="clipPath356">
      <path
         d="M 0,642.789 H 866.639 V 0 H 0 Z"
         transform="translate(-762.59089,-379.99931)"
         id="path356" />
    </clipPath>
    <clipPath
       clipPathUnits="userSpaceOnUse"
       id="clipPath358">
      <path
         d="M 0,642.789 H 866.639 V 0 H 0 Z"
         transform="translate(-761.36959,-362.39801)"
         id="path358" />
    </clipPath>
    <clipPath
       clipPathUnits="userSpaceOnUse"
       id="clipPath360">
      <path
         d="M 0,642.789 H 866.639 V 0 H 0 Z"
         transform="translate(-74.295102,-87.355705)"
         id="path360" />
    </clipPath>
    <clipPath
       clipPathUnits="userSpaceOnUse"
       id="clipPath362">
      <path
         d="M 0,642.789 H 866.639 V 0 H 0 Z"
         transform="translate(-103.3123,-34.800698)"
         id="path362" />
    </clipPath>
    <clipPath
       clipPathUnits="userSpaceOnUse"
       id="clipPath364">
      <path
         d="M 0,642.789 H 866.639 V 0 H 0 Z"
         transform="translate(-758.75104,-399.74101)"
         id="path364" />
    </clipPath>
    <clipPath
       clipPathUnits="userSpaceOnUse"
       id="clipPath366">
      <path
         d="M 0,642.789 H 866.639 V 0 H 0 Z"
         transform="translate(-791.24982,-351.43091)"
         id="path366" />
    </clipPath>
    <clipPath
       clipPathUnits="userSpaceOnUse"
       id="clipPath368">
      <path
         d="M 0,642.789 H 866.639 V 0 H 0 Z"
         transform="translate(-95.586102,-22.603898)"
         id="path368" />
    </clipPath>
    <clipPath
       clipPathUnits="userSpaceOnUse"
       id="clipPath370">
      <path
         d="M 0,642.789 H 866.639 V 0 H 0 Z"
         transform="translate(-396.98501,-198.72411)"
         id="path370" />
    </clipPath>
  </defs>
  <g
     id="layer-MC5"
     transform="translate(-5401.3467)">
    <path
       id="path299"
       d="m 0,0 c -2.229,0.247 -4.454,-0.375 -6.601,-1.022 -9.165,-2.762 -19.094,-6.103 -28.024,-2.653 -2.76,1.067 -5.243,2.735 -7.645,4.464 -10.752,7.741 -20.87,17.741 -24.001,30.615 -3.031,12.46 1.124,25.885 8.698,36.233 7.575,10.348 18.252,18.005 29.317,24.488 7.906,4.633 16.18,8.789 25.031,11.164 8.851,2.375 18.356,2.896 27.145,0.302 C 39.622,98.958 53.904,86.215 59.003,70.658 62.822,59.002 64.073,43.985 55.742,34.983 53.57,32.636 46.948,29.826 46.75,26.634 46.489,22.405 50.696,18.385 51.151,13.955 51.552,10.06 49.948,5.683 46.402,4.022 43.375,2.605 39.837,3.445 36.557,4.091 31.752,5.038 27.626,4.496 24.583,0.416 22.007,-3.039 20.697,-7.971 16.519,-9.944 14.368,-10.961 11.72,-10.846 9.664,-9.648 5.164,-7.026 6.237,-0.69 0,0"
       style="fill:#fbd66d;fill-opacity:1;fill-rule:nonzero;stroke:#231f20;stroke-width:1;stroke-linecap:butt;stroke-linejoin:miter;stroke-miterlimit:10;stroke-dasharray:none;stroke-opacity:1"
       transform="matrix(1.3333333,0,0,-1.3333333,6031.1332,644.42587)"
       clip-path="url(#clipPath300)" />
    <path
       id="path301"
       d="m 0,0 c 0.055,0.015 0.109,0.032 0.164,0.05 0.394,0.128 0.819,0.366 0.913,0.753 0.058,0.241 -0.029,0.48 -0.12,0.702 -1.342,3.265 -3.718,6.01 -6.615,8.075 -1.497,1.066 -3.12,1.975 -4.822,2.729 -1.185,0.524 -3.457,1.893 -4.705,0.646 -1.393,-1.394 -1.135,-3.431 -1.138,-5.121 -0.003,-2.032 -0.178,-4.074 -0.107,-6.101 0.09,-2.565 0.615,-5.185 2.206,-7.152 0.488,-0.602 1.164,-1.169 1.988,-1.12 0.654,0.038 1.255,0.471 1.646,1 0.956,1.293 1.092,2.95 2.196,4.192 C -6.148,1.179 -2.759,-0.777 0,0"
       style="fill:#f0432b;fill-opacity:1;fill-rule:nonzero;stroke:#231f20;stroke-width:1;stroke-linecap:butt;stroke-linejoin:miter;stroke-miterlimit:10;stroke-dasharray:none;stroke-opacity:1"
       transform="matrix(1.3333333,0,0,-1.3333333,6065.6704,624.5924)"
       clip-path="url(#clipPath302)" />
    <path
       id="path303"
       d="M 0,0 C 0.813,-0.242 1.697,-0.239 2.509,0.008 2.253,2.213 0.443,4.147 -1.741,4.548 -2.026,4.6 -2.331,4.627 -2.597,4.51 -3.127,4.278 -3.277,3.606 -3.318,3.028 c -0.133,-1.877 0.158,-3.784 0.843,-5.537 1.223,0.355 2.249,1.329 2.668,2.531"
       style="fill:#231f20;fill-opacity:1;fill-rule:nonzero;stroke:#231f20;stroke-width:1;stroke-linecap:butt;stroke-linejoin:miter;stroke-miterlimit:10;stroke-dasharray:none;stroke-opacity:1"
       transform="matrix(1.3333333,0,0,-1.3333333,6053.4792,620.2116)"
       clip-path="url(#clipPath304)" />
    <path
       id="path305"
       d="m 0,0 c 0.034,0.134 0.068,0.249 0.101,0.341 0.72,1.979 2.591,3.651 4.717,3.869 0.963,0.098 1.951,-0.144 2.79,-0.63 1.226,-0.71 2.736,-0.558 3.726,0.456 0.996,1.02 2.359,1.686 3.789,1.706 2.108,0.031 4.113,-1.343 5.024,-3.223 0.461,-0.951 1.413,-1.568 2.466,-1.664 3.944,-0.361 7.524,-4.216 7.056,-8.251 -0.117,-1.012 -0.433,-2.082 -0.019,-3.013 0.297,-0.67 0.918,-1.126 1.447,-1.633 2.332,-2.234 2.893,-6.014 1.555,-8.916 -0.411,-0.89 -0.393,-1.878 -0.02,-2.784 0.499,-1.212 0.248,-2.805 -0.554,-3.912 -0.832,-1.149 -2.062,-1.901 -3.361,-2.514 -0.812,-0.384 -1.447,-1.083 -1.702,-1.944 -0.525,-1.772 -1.402,-3.447 -2.828,-4.594 -1.205,-0.97 -2.87,-1.441 -4.365,-1.192 -1.2,0.2 -2.365,-0.328 -3.1,-1.297 -0.994,-1.311 -2.419,-2.27 -4.042,-2.42 -2.257,-0.208 -5.388,2.449 -7.385,3.001 -2.607,0.722 -3.977,-0.859 -6.721,-0.532 -2.488,0.297 -4.977,1.142 -6.848,2.809 -2.581,2.301 -2.657,5.204 -3.588,8.27 -0.633,2.084 -2.288,3.404 -2.953,5.442 -1.142,3.503 2.055,7.072 5.493,7.333 0.636,0.048 1.413,0.074 1.709,0.64 0.223,0.426 0.039,0.939 -0.097,1.4 -0.986,3.348 -1.847,7.851 4.634,7.954 1.443,0.023 2.531,1.365 2.66,2.802 C -0.324,-1.475 -0.127,-0.506 0,0"
       style="fill:#7c569c;fill-opacity:1;fill-rule:nonzero;stroke:#231f20;stroke-width:1;stroke-linecap:butt;stroke-linejoin:miter;stroke-miterlimit:10;stroke-dasharray:none;stroke-opacity:1"
       transform="matrix(1.3333333,0,0,-1.3333333,6053.8209,546.19693)"
       clip-path="url(#clipPath306)" />
    <path
       id="path307"
       d="m 0,0 c -2.655,1.033 -10.516,5.616 -13.267,4.877 0.94,-2.172 1.64,-4.446 2.086,-6.77 0.07,-0.361 0.125,-0.764 -0.075,-1.073 -0.219,-0.337 -0.659,-0.436 -1.054,-0.507 -3.101,-0.556 -6.202,-1.113 -9.303,-1.669 1.912,-0.757 3.823,-1.515 5.734,-2.272 -3.401,-1.459 -6.204,-4.263 -7.663,-7.665 2.13,1.286 4.734,1.766 7.183,1.322 -2.241,-2.349 -3.374,-5.711 -3.013,-8.936 1.361,1.28 3.088,2.168 4.922,2.528 -0.448,-2.941 -0.274,-5.976 0.507,-8.847 1.097,1.775 2.666,3.256 4.502,4.247 0.267,-2.785 1.07,-5.517 2.352,-8.004 0.487,2.382 1.6,4.633 3.197,6.466 1.325,-2.298 2.649,-4.596 3.973,-6.894 0.431,2.272 0.987,4.749 2.36,6.661 0.373,0.517 0.517,1.835 1.131,1.495 0.374,-0.206 1.025,-1.608 1.294,-1.94 1.446,-1.785 3.614,-4.117 5.824,-4.906 0.457,3.48 -0.15,7.025 0.633,10.476"
       style="fill:#4e3f80;fill-opacity:1;fill-rule:nonzero;stroke:#231f20;stroke-width:1;stroke-linecap:butt;stroke-linejoin:miter;stroke-miterlimit:10;stroke-dasharray:none;stroke-opacity:1"
       transform="matrix(1.3333333,0,0,-1.3333333,6002.5793,594.58787)"
       clip-path="url(#clipPath308)" />
    <path
       id="path309"
       d="m 0,0 c -2,0.705 -4.101,0.962 -6.167,0.165 -1.079,-0.417 -2.051,-1.305 -2.236,-2.446 -0.424,-2.614 2.307,-4.331 4.551,-4.578 1.714,-0.189 3.434,0.19 5.122,0.544 0.956,0.201 1.917,0.394 2.891,0.473 1.006,0.083 1.945,-0.107 2.94,-0.14 0.42,-0.014 0.665,0.263 0.617,0.684 C 7.693,-5.077 7.591,-4.873 7.477,-4.683 6.71,-3.404 5.385,-2.614 4.135,-1.874 2.833,-1.104 1.425,-0.502 0,0"
       style="fill:#f0432b;fill-opacity:1;fill-rule:nonzero;stroke:#231f20;stroke-width:1;stroke-linecap:butt;stroke-linejoin:miter;stroke-miterlimit:10;stroke-dasharray:none;stroke-opacity:1"
       transform="matrix(1.3333333,0,0,-1.3333333,5994.7373,557.14947)"
       clip-path="url(#clipPath310)" />
    <path
       id="path311"
       d="m 0,0 c -0.916,1.913 -2.219,3.58 -4.245,4.477 -1.057,0.469 -2.372,0.528 -3.31,-0.148 -2.148,-1.549 -1.43,-4.694 -0.019,-6.455 1.079,-1.346 2.563,-2.294 4.007,-3.237 0.817,-0.534 1.633,-1.077 2.379,-1.71 0.769,-0.653 1.299,-1.452 1.979,-2.179 0.287,-0.306 0.656,-0.283 0.92,0.048 0.139,0.174 0.211,0.39 0.265,0.605 0.362,1.448 -0.016,2.943 -0.377,4.35 C 1.223,-2.784 0.652,-1.362 0,0"
       style="fill:#f0432b;fill-opacity:1;fill-rule:nonzero;stroke:#231f20;stroke-width:1;stroke-linecap:butt;stroke-linejoin:miter;stroke-miterlimit:10;stroke-dasharray:none;stroke-opacity:1"
       transform="matrix(1.3333333,0,0,-1.3333333,6007.3588,541.71747)"
       clip-path="url(#clipPath312)" />
    <path
       id="path313"
       d="M 0,0 C 0.705,2 0.962,4.101 0.165,6.167 -0.252,7.246 -1.14,8.218 -2.281,8.403 -4.895,8.827 -6.612,6.096 -6.859,3.852 c -0.189,-1.714 0.19,-3.434 0.544,-5.122 0.201,-0.956 0.394,-1.917 0.473,-2.891 0.083,-1.006 -0.107,-1.945 -0.14,-2.94 -0.014,-0.42 0.263,-0.665 0.684,-0.617 0.221,0.025 0.425,0.127 0.615,0.241 1.279,0.767 2.069,2.092 2.809,3.342 0.77,1.302 1.372,2.71 1.874,4.135"
       style="fill:#f0432b;fill-opacity:1;fill-rule:nonzero;stroke:none"
       transform="matrix(1.3333333,0,0,-1.3333333,6027.448,543.54587)"
       clip-path="url(#clipPath314)" />
    <path
       id="path315"
       d="M 0,0 C 0.705,2 0.962,4.101 0.165,6.167 -0.252,7.246 -1.14,8.218 -2.281,8.403 -4.895,8.827 -6.612,6.096 -6.859,3.852 c -0.189,-1.714 0.19,-3.434 0.544,-5.122 0.201,-0.956 0.394,-1.917 0.473,-2.891 0.083,-1.006 -0.107,-1.945 -0.14,-2.94 -0.014,-0.42 0.263,-0.665 0.684,-0.617 0.221,0.025 0.425,0.127 0.615,0.241 1.279,0.767 2.069,2.092 2.809,3.342 0.77,1.302 1.372,2.71 1.874,4.135 z"
       style="fill:none;stroke:#231f20;stroke-width:1;stroke-linecap:butt;stroke-linejoin:miter;stroke-miterlimit:10;stroke-dasharray:none;stroke-opacity:1"
       transform="matrix(1.3333333,0,0,-1.3333333,6027.448,543.54587)"
       clip-path="url(#clipPath316)" />
    <path
       id="path317"
       d="m 0,0 c 0.647,-1.131 0.256,-2.572 -0.875,-3.219 -1.13,-0.648 -2.572,-0.256 -3.219,0.875 -0.647,1.13 -0.256,2.572 0.875,3.219 C -2.089,1.522 -0.647,1.131 0,0"
       style="fill:#f0c02f;fill-opacity:1;fill-rule:nonzero;stroke:#231f20;stroke-width:1;stroke-linecap:butt;stroke-linejoin:miter;stroke-miterlimit:10;stroke-dasharray:none;stroke-opacity:1"
       transform="matrix(1.3333333,0,0,-1.3333333,5990.6732,546.92947)"
       clip-path="url(#clipPath318)" />
    <path
       id="path319"
       d="m 0,0 c 0.647,-1.131 0.256,-2.572 -0.875,-3.219 -1.13,-0.648 -2.572,-0.256 -3.219,0.875 -0.647,1.13 -0.256,2.572 0.875,3.219 C -2.089,1.522 -0.647,1.131 0,0"
       style="fill:#cc5048;fill-opacity:1;fill-rule:nonzero;stroke:#231f20;stroke-width:1;stroke-linecap:butt;stroke-linejoin:miter;stroke-miterlimit:10;stroke-dasharray:none;stroke-opacity:1"
       transform="matrix(1.3333333,0,0,-1.3333333,6067.9552,532.28947)"
       clip-path="url(#clipPath320)" />
    <path
       id="path321"
       d="m 0,0 c 0.647,-1.131 0.256,-2.572 -0.875,-3.219 -1.13,-0.648 -2.572,-0.256 -3.219,0.875 -0.647,1.13 -0.256,2.572 0.875,3.219 C -2.089,1.522 -0.647,1.131 0,0"
       style="fill:#cc5048;fill-opacity:1;fill-rule:nonzero;stroke:#231f20;stroke-width:1;stroke-linecap:butt;stroke-linejoin:miter;stroke-miterlimit:10;stroke-dasharray:none;stroke-opacity:1"
       transform="matrix(1.3333333,0,0,-1.3333333,5982.9501,591.66027)"
       clip-path="url(#clipPath322)" />
    <path
       id="path323"
       d="m 0,0 c 0.647,-1.131 0.256,-2.572 -0.875,-3.219 -1.13,-0.648 -2.572,-0.256 -3.219,0.875 -0.647,1.13 -0.256,2.572 0.875,3.219 C -2.089,1.522 -0.647,1.131 0,0"
       style="fill:#cc5048;fill-opacity:1;fill-rule:nonzero;stroke:#231f20;stroke-width:1;stroke-linecap:butt;stroke-linejoin:miter;stroke-miterlimit:10;stroke-dasharray:none;stroke-opacity:1"
       transform="matrix(1.3333333,0,0,-1.3333333,5970.5596,619.6456)"
       clip-path="url(#clipPath324)" />
    <path
       id="path325"
       d="m 0,0 c 0.647,-1.131 0.256,-2.572 -0.875,-3.219 -1.13,-0.648 -2.572,-0.256 -3.219,0.875 -0.647,1.13 -0.256,2.572 0.875,3.219 C -2.089,1.522 -0.647,1.131 0,0"
       style="fill:#cc5048;fill-opacity:1;fill-rule:nonzero;stroke:#231f20;stroke-width:1;stroke-linecap:butt;stroke-linejoin:miter;stroke-miterlimit:10;stroke-dasharray:none;stroke-opacity:1"
       transform="matrix(1.3333333,0,0,-1.3333333,6010.9115,640.49373)"
       clip-path="url(#clipPath326)" />
    <path
       id="path327"
       d="m 0,0 c 0.647,-1.131 0.256,-2.572 -0.875,-3.219 -1.13,-0.648 -2.572,-0.256 -3.219,0.875 -0.647,1.13 -0.256,2.572 0.875,3.219 C -2.089,1.522 -0.647,1.131 0,0"
       style="fill:#cc5048;fill-opacity:1;fill-rule:nonzero;stroke:#231f20;stroke-width:1;stroke-linecap:butt;stroke-linejoin:miter;stroke-miterlimit:10;stroke-dasharray:none;stroke-opacity:1"
       transform="matrix(1.3333333,0,0,-1.3333333,6089.2164,536.35133)"
       clip-path="url(#clipPath328)" />
    <path
       id="path329"
       d="m 0,0 c 0.647,-1.131 0.256,-2.572 -0.875,-3.219 -1.13,-0.648 -2.572,-0.256 -3.219,0.875 -0.647,1.13 -0.256,2.572 0.875,3.219 C -2.089,1.522 -0.647,1.131 0,0"
       style="fill:#cc5048;fill-opacity:1;fill-rule:nonzero;stroke:#231f20;stroke-width:1;stroke-linecap:butt;stroke-linejoin:miter;stroke-miterlimit:10;stroke-dasharray:none;stroke-opacity:1"
       transform="matrix(1.3333333,0,0,-1.3333333,6102.7605,553.67587)"
       clip-path="url(#clipPath330)" />
    <path
       id="path331"
       d="m 0,0 c 0.647,-1.131 0.256,-2.572 -0.875,-3.219 -1.13,-0.648 -2.572,-0.256 -3.219,0.875 -0.647,1.13 -0.256,2.572 0.875,3.219 C -2.089,1.522 -0.647,1.131 0,0"
       style="fill:#cc5048;fill-opacity:1;fill-rule:nonzero;stroke:#231f20;stroke-width:1;stroke-linecap:butt;stroke-linejoin:miter;stroke-miterlimit:10;stroke-dasharray:none;stroke-opacity:1"
       transform="matrix(1.3333333,0,0,-1.3333333,6106.5944,572.20133)"
       clip-path="url(#clipPath332)" />
    <path
       id="path333"
       d="m 0,0 c 0.647,-1.131 0.256,-2.572 -0.875,-3.219 -1.13,-0.648 -2.572,-0.256 -3.219,0.875 -0.647,1.13 -0.256,2.572 0.875,3.219 C -2.089,1.522 -0.647,1.131 0,0"
       style="fill:#f0c02f;fill-opacity:1;fill-rule:nonzero;stroke:#231f20;stroke-width:1;stroke-linecap:butt;stroke-linejoin:miter;stroke-miterlimit:10;stroke-dasharray:none;stroke-opacity:1"
       transform="matrix(1.3333333,0,0,-1.3333333,6014.8136,533.10707)"
       clip-path="url(#clipPath334)" />
    <path
       id="path335"
       d="M 0,0 C -0.205,-1.222 -0.821,-1.648 -1.552,-2.049 -2.257,-2.471 -3,-2.907 -3.817,-3.285 c -1.654,-0.779 -3.754,-1.113 -5.551,-0.598 -1.657,0.443 -2.912,1.235 -4.538,1.474 -1.462,0.244 -3.045,0.157 -4.47,-0.35 -2.097,-0.547 -3.767,-3.366 -1.788,-4.946 2.013,-1.497 4.584,0.112 5.381,2.239 0.609,1.427 0.667,3.037 0.671,4.64 l 0.999,-0.059 c -0.187,-1.607 -0.358,-3.297 -1.072,-4.849 -0.93,-2.359 -4.008,-4.16 -6.343,-2.468 -1.61,1.068 -1.507,3.45 -0.352,4.83 1.746,2.016 4.54,2.644 7.123,2.649 3.029,-0.092 5.884,-1.867 8.724,-0.028 1.577,0.597 2.483,2.308 4.548,1.625 C -0.485,0.874 0,0 0,0"
       style="fill:#231f20;fill-opacity:1;fill-rule:nonzero;stroke:none"
       transform="matrix(1.3333333,0,0,-1.3333333,6000.8727,571.08987)"
       clip-path="url(#clipPath336)" />
    <path
       id="path337"
       d="m 0,0 c 0.237,1.263 1.002,1.677 1.718,2.001 1.897,0.945 3.855,2.026 4.647,4.012 0.569,1.417 0.899,3.229 1.73,4.624 1.312,2.225 3.269,4.317 5.891,4.802 3.153,0.466 5.17,-2.611 3.274,-5.234 C 14.893,7.229 10.722,8.642 7.909,10 c 0,0 0.455,0.891 0.455,0.891 2.445,-1.562 6.297,-2.993 8.429,-0.348 0.871,1.156 0.809,3.06 -0.569,3.774 C 13.293,15.755 10.556,12.399 9.625,9.912 9.009,8.389 9.056,6.906 8.599,5.252 8.134,3.443 6.782,1.799 5.274,0.768 4.534,0.254 3.782,-0.166 3.061,-0.56 2.345,-0.987 1.666,-1.303 0.508,-0.861 Z"
       style="fill:#231f20;fill-opacity:1;fill-rule:nonzero;stroke:none"
       transform="matrix(1.3333333,0,0,-1.3333333,6024.3505,556.11027)"
       clip-path="url(#clipPath338)" />
    <path
       id="path339"
       d="m 0,0 c -0.705,-1.657 -1.244,-4.516 -3.604,-4.626 -2.945,0.117 -6.194,4.571 -5.969,7.354 0,0 0.874,0.487 0.874,0.487 2.261,-1.226 2.893,-3.626 4.326,-5.369 0.664,-0.758 1.084,-1.207 1.999,-0.513 0.815,0.662 1.476,1.749 1.849,2.857 z"
       style="fill:#231f20;fill-opacity:1;fill-rule:nonzero;stroke:none"
       transform="matrix(1.3333333,0,0,-1.3333333,5998.3153,641.00187)"
       clip-path="url(#clipPath340)" />
    <path
       id="path341"
       d="m 0,0 c 1.145,-0.239 2.416,-0.219 3.4,0.149 1.062,0.438 0.887,1.027 0.569,1.983 -0.777,2.12 -2.527,3.877 -2.44,6.448 0,0 0.862,0.508 0.862,0.508 C 5.037,7.931 7.98,1.107 4.744,-0.671 3.15,-1.382 1.403,-0.734 -0.102,-0.549 -0.102,-0.549 0,0 0,0"
       style="fill:#231f20;fill-opacity:1;fill-rule:nonzero;stroke:none"
       transform="matrix(1.3333333,0,0,-1.3333333,6065.7649,628.09307)"
       clip-path="url(#clipPath342)" />
    <path
       id="path343"
       d="m 0,0 c -0.639,-1.275 -0.794,-2.735 -0.85,-4.16 -0.21,-5.285 1.287,-11.307 5.945,-13.813 4.151,-2.233 9.274,-0.886 13.646,0.877 3.657,1.474 7.209,3.209 10.621,5.187 1.601,0.928 3.229,1.967 4.194,3.547 0.947,1.549 1.141,3.446 1.063,5.26 -0.156,3.626 -1.566,7.505 -4.729,9.285 -2,1.126 -4.398,1.253 -6.692,1.226 C 16.494,7.328 3.625,7.23 0,0"
       style="fill:#231f20;fill-opacity:1;fill-rule:nonzero;stroke:none"
       transform="matrix(1.3333333,0,0,-1.3333333,5985.1943,603.6904)"
       clip-path="url(#clipPath344)" />
    <path
       id="path345"
       d="m 0,0 c -0.296,-0.591 -0.368,-1.268 -0.394,-1.929 -0.097,-2.451 0.597,-5.243 2.756,-6.405 1.925,-1.036 4.301,-0.411 6.328,0.406 1.696,0.684 3.343,1.489 4.925,2.406 0.743,0.43 1.498,0.912 1.945,1.644 0.439,0.719 0.529,1.598 0.493,2.44 C 15.981,0.243 15.327,2.042 13.86,2.867 12.933,3.389 11.821,3.448 10.757,3.435 7.648,3.398 1.681,3.353 0,0"
       style="fill:#f0c02f;fill-opacity:1;fill-rule:nonzero;stroke:#231f20;stroke-width:0.81;stroke-linecap:butt;stroke-linejoin:miter;stroke-miterlimit:10;stroke-dasharray:none;stroke-opacity:1"
       transform="matrix(1.3333333,0,0,-1.3333333,6003.0704,606.05427)"
       clip-path="url(#clipPath346)" />
    <path
       id="path347"
       d="m 0,0 c 2.359,3.983 5.174,8.018 9.396,9.916 6.22,2.796 14.47,-0.647 16.82,-7.048 0.76,-2.072 0.955,-4.31 0.946,-6.517 -0.009,-2.239 -0.229,-4.516 -1.079,-6.587 -2.322,-5.661 -8.669,-8.475 -14.618,-9.903 C 7.631,-21.059 3.489,-21.614 -0.17,-20.145 -10.373,-16.048 -3.62,-6.113 0,0"
       style="fill:#231f20;fill-opacity:1;fill-rule:nonzero;stroke:none"
       transform="matrix(1.3333333,0,0,-1.3333333,6052.8721,564.52)"
       clip-path="url(#clipPath348)" />
    <path
       id="path349"
       d="m 0,0 c 1.179,1.991 2.587,4.009 4.698,4.958 3.11,1.398 7.235,-0.323 8.41,-3.524 0.38,-1.036 0.477,-2.155 0.473,-3.258 -0.004,-1.12 -0.114,-2.258 -0.539,-3.294 C 11.88,-7.948 8.707,-9.355 5.732,-10.069 3.815,-10.53 1.744,-10.807 -0.085,-10.072 -5.186,-8.024 -1.81,-3.056 0,0"
       style="fill:#f0c02f;fill-opacity:1;fill-rule:nonzero;stroke:#231f20;stroke-width:1;stroke-linecap:butt;stroke-linejoin:miter;stroke-miterlimit:10;stroke-dasharray:none;stroke-opacity:1"
       transform="matrix(1.3333333,0,0,-1.3333333,6055.5271,572.81987)"
       clip-path="url(#clipPath350)" />
    <path
       id="path351"
       d="m 0,0 c 1.331,0.532 2.746,0.844 4.174,0.794 3.801,-0.134 11.191,-4.153 11.532,-8.468 0.149,-1.888 -1.243,-3.516 -1.796,-5.328 -0.641,-2.101 -0.124,-4.367 0.501,-6.473 0.624,-2.106 1.363,-4.257 1.154,-6.443 -0.444,-4.64 -5.815,-5.96 -9.694,-6.384 -2.058,-0.225 -4.677,-0.266 -6.049,-2.087 -0.995,-1.321 -0.895,-3.17 -0.453,-4.763 0.443,-1.593 1.181,-3.119 1.333,-4.766 0.534,-5.797 -6.125,-4.319 -9.764,-4.252 -3.177,0.059 -6.294,-1.515 -9.434,-1.023 -1.937,0.304 -3.66,1.368 -5.295,2.451 -2.339,1.55 -4.848,3.585 -4.97,6.388 -0.054,1.226 0.377,2.424 0.428,3.65 0.198,4.672 -4.909,1.001 -6.844,-0.031 -0.49,-0.262 -1.002,-0.529 -1.556,-0.546 -0.758,-0.023 -1.441,0.421 -2.068,0.848 -1.877,1.279 -3.824,2.633 -4.907,4.63 -1.69,3.119 -0.876,7.006 -1.892,10.405 -0.532,1.778 -1.551,3.371 -2.203,5.108 -0.652,1.738 -0.894,3.798 0.093,5.37 0.559,0.89 1.445,1.518 2.326,2.091 2.699,1.759 5.576,3.244 8.574,4.429 1.309,0.517 2.193,1.222 2.416,2.703 0.133,0.879 0.022,1.773 -0.034,2.66 -0.138,2.203 0.135,4.59 1.585,6.255 1.567,1.8 4.116,2.335 6.489,2.587 3.53,0.375 6.856,1.16 9.765,3.305 0.557,0.41 1.126,0.874 1.812,0.961 0.968,0.123 1.853,-0.535 2.548,-1.22 2.094,-2.067 3.51,-4.671 4.785,-7.292 0.726,-1.494 2.333,-7.079 4.379,-6.882 0.574,0.055 1.088,0.362 1.596,0.635 C -0.994,-0.433 -0.503,-0.201 0,0"
       style="fill:#f0432b;fill-opacity:1;fill-rule:nonzero;stroke:#231f20;stroke-width:1;stroke-linecap:butt;stroke-linejoin:miter;stroke-miterlimit:10;stroke-dasharray:none;stroke-opacity:1"
       transform="matrix(1.3333333,0,0,-1.3333333,5824.8245,40.144)"
       clip-path="url(#clipPath352)" />
    <path
       id="path353"
       d="m 0,0 c 0,-6.982 -5.66,-12.643 -12.643,-12.643 -6.982,0 -12.643,5.661 -12.643,12.643 0,6.982 5.661,12.643 12.643,12.643 C -5.66,12.643 0,6.982 0,0"
       style="fill:#f0c02f;fill-opacity:1;fill-rule:nonzero;stroke:#231f20;stroke-width:1;stroke-linecap:butt;stroke-linejoin:miter;stroke-miterlimit:10;stroke-dasharray:none;stroke-opacity:1"
       transform="matrix(1.3333333,0,0,-1.3333333,5823.1961,63.6124)"
       clip-path="url(#clipPath354)" />
    <path
       id="path355"
       d="m 0,0 c 1.331,0.532 2.746,0.844 4.174,0.794 3.801,-0.134 11.191,-4.153 11.532,-8.468 0.149,-1.888 -1.243,-3.516 -1.796,-5.328 -0.641,-2.101 -0.124,-4.367 0.501,-6.473 0.624,-2.106 1.363,-4.257 1.154,-6.443 -0.444,-4.64 -5.815,-5.96 -9.694,-6.384 -2.058,-0.225 -4.677,-0.266 -6.049,-2.087 -0.995,-1.321 -0.895,-3.17 -0.453,-4.763 0.443,-1.593 1.181,-3.119 1.333,-4.766 0.534,-5.797 -6.125,-4.319 -9.764,-4.252 -3.177,0.059 -6.294,-1.516 -9.434,-1.023 -1.937,0.304 -3.66,1.368 -5.295,2.451 -2.339,1.55 -4.848,3.585 -4.97,6.388 -0.054,1.226 0.377,2.424 0.428,3.65 0.198,4.672 -4.909,1.001 -6.844,-0.031 -0.49,-0.262 -1.002,-0.529 -1.556,-0.546 -0.758,-0.023 -1.441,0.421 -2.068,0.848 -1.877,1.279 -3.824,2.633 -4.907,4.63 -1.69,3.119 -0.876,7.006 -1.892,10.405 -0.532,1.778 -1.551,3.371 -2.203,5.108 -0.652,1.738 -0.894,3.798 0.093,5.37 0.559,0.89 1.445,1.518 2.326,2.091 2.699,1.758 5.576,3.244 8.574,4.429 1.309,0.517 2.193,1.222 2.416,2.703 0.133,0.879 0.022,1.773 -0.034,2.66 -0.138,2.203 0.135,4.59 1.585,6.255 1.567,1.8 4.116,2.335 6.489,2.587 3.529,0.375 6.856,1.159 9.765,3.305 0.557,0.41 1.126,0.874 1.812,0.961 0.968,0.123 1.853,-0.535 2.548,-1.22 2.094,-2.067 3.51,-4.671 4.785,-7.292 0.725,-1.494 2.333,-7.079 4.379,-6.882 0.574,0.055 1.088,0.362 1.596,0.635 C -0.994,-0.433 -0.503,-0.201 0,0"
       style="fill:#7c569c;fill-opacity:1;fill-rule:nonzero;stroke:#231f20;stroke-width:1;stroke-linecap:butt;stroke-linejoin:miter;stroke-miterlimit:10;stroke-dasharray:none;stroke-opacity:1"
       transform="matrix(1.3333333,0,0,-1.3333333,6418.1345,350.38627)"
       clip-path="url(#clipPath356)" />
    <path
       id="path357"
       d="m 0,0 c 0,-6.982 -5.66,-12.643 -12.643,-12.643 -6.982,0 -12.643,5.661 -12.643,12.643 0,6.982 5.661,12.643 12.643,12.643 C -5.66,12.643 0,6.982 0,0"
       style="fill:#f0c02f;fill-opacity:1;fill-rule:nonzero;stroke:#231f20;stroke-width:1;stroke-linecap:butt;stroke-linejoin:miter;stroke-miterlimit:10;stroke-dasharray:none;stroke-opacity:1"
       transform="matrix(1.3333333,0,0,-1.3333333,6416.5061,373.85467)"
       clip-path="url(#clipPath358)" />
    <path
       id="path359"
       d="m 0,0 c 0.694,7.661 3.014,14.978 8.764,20.591 3.002,2.931 7.397,4.796 11.442,3.684 9.26,-2.546 10.801,-14.147 8.232,-21.919 -1.964,-5.94 -5.81,-11.041 -9.526,-16.074 -2.104,-2.849 -4.19,-5.729 -5.923,-8.823 -1.789,-3.194 -2.58,-6.579 -3.972,-9.91 -0.588,-1.405 -1.872,-1.794 -3.19,-1.001 -0.689,0.414 -1.21,1.058 -1.665,1.721 -3.061,4.463 -3.668,10.024 -4.22,15.265 C -0.634,-11.011 -0.494,-5.457 0,0"
       style="fill:#f0c02f;fill-opacity:1;fill-rule:nonzero;stroke:#231f20;stroke-width:1;stroke-linecap:butt;stroke-linejoin:miter;stroke-miterlimit:10;stroke-dasharray:none;stroke-opacity:1"
       transform="matrix(1.3333333,0,0,-1.3333333,5500.4068,740.57773)"
       clip-path="url(#clipPath360)" />
    <path
       id="path361"
       d="m 0,0 c -0.114,1.499 0.114,3.037 0.611,4.459 2.133,6.108 14.07,12.747 9.397,19.997 -0.821,1.274 -2.149,2.137 -3.525,2.772 -1.464,0.677 -3.078,1.145 -4.68,0.959 -2.338,-0.271 -4.297,-1.875 -5.909,-3.591 -4.561,-4.852 -6.983,-11.35 -5.453,-17.972 1.28,-5.545 4.881,-12.259 9.973,-15.114 0.637,-0.358 1.539,-0.619 2.018,-0.067 0.204,0.236 0.264,0.563 0.271,0.875 C 2.74,-6.031 1.546,-4.649 0.828,-3.161 0.35,-2.169 0.084,-1.095 0,0"
       style="fill:#7c569c;fill-opacity:1;fill-rule:nonzero;stroke:#231f20;stroke-width:1;stroke-linecap:butt;stroke-linejoin:miter;stroke-miterlimit:10;stroke-dasharray:none;stroke-opacity:1"
       transform="matrix(1.3333333,0,0,-1.3333333,5539.0964,810.65107)"
       clip-path="url(#clipPath362)" />
    <path
       id="path363"
       d="m 0,0 c -1.085,1.04 -2.418,1.841 -3.833,2.36 -6.073,2.23 -18.781,-2.777 -21.415,5.437 -0.463,1.443 -0.286,3.017 0.096,4.484 0.407,1.56 1.07,3.104 2.231,4.224 1.694,1.634 4.178,2.128 6.527,2.285 6.645,0.442 13.202,-1.812 17.347,-7.199 C 4.423,7.081 7.324,0.036 6.297,-5.711 6.168,-6.431 5.797,-7.293 5.066,-7.312 4.755,-7.32 4.464,-7.159 4.219,-6.966 2.919,-5.946 2.61,-4.146 1.916,-2.647 1.453,-1.648 0.793,-0.76 0,0"
       style="fill:#f0c02f;fill-opacity:1;fill-rule:nonzero;stroke:#231f20;stroke-width:1;stroke-linecap:butt;stroke-linejoin:miter;stroke-miterlimit:10;stroke-dasharray:none;stroke-opacity:1"
       transform="matrix(1.3333333,0,0,-1.3333333,6413.0147,324.064)"
       clip-path="url(#clipPath364)" />
    <path
       id="path365"
       d="m 0,0 c -1.773,16.105 1.504,34.958 -12.082,46.888 -3.802,3.339 -8.084,6.278 -11.061,10.442 -4.094,5.727 -10.967,16.986 -3.216,22.319 4.968,3.418 12.988,3.968 18.66,2.226 C -2.195,80.184 1.253,75.641 4.186,70.959 10.325,61.157 15.706,49.778 16.279,38.036 16.5,33.488 15.829,28.815 13.923,24.654 11.905,20.246 9.116,16.282 7.545,11.626 5.814,6.495 4.961,0.996 4.873,-4.41 4.861,-5.144 4.844,-5.937 4.396,-6.518 1.642,-10.088 0.42,-3.816 0,0"
       style="fill:#f0432b;fill-opacity:1;fill-rule:nonzero;stroke:#231f20;stroke-width:1;stroke-linecap:butt;stroke-linejoin:miter;stroke-miterlimit:10;stroke-dasharray:none;stroke-opacity:1"
       transform="matrix(1.3333333,0,0,-1.3333333,6456.3464,388.47747)"
       clip-path="url(#clipPath366)" />
    <path
       id="path367"
       d="m 0,0 c -11.207,11.701 -27.764,21.296 -28.185,39.371 -0.118,5.058 0.379,10.228 -0.902,15.184 -1.761,6.817 -5.978,19.316 -15.043,16.798 -5.811,-1.614 -11.382,-7.408 -13.689,-12.875 -2.239,-5.305 -0.97,-10.865 0.736,-16.12 3.572,-11.001 8.838,-22.433 17.472,-30.412 3.344,-3.091 7.358,-5.577 11.771,-6.788 4.675,-1.283 9.505,-1.691 14.083,-3.476 5.044,-1.968 9.808,-4.845 14.009,-8.25 C 0.822,-7.029 1.44,-7.526 2.173,-7.556 6.678,-7.737 2.656,-2.773 0,0"
       style="fill:#f0432b;fill-opacity:1;fill-rule:nonzero;stroke:#231f20;stroke-width:1;stroke-linecap:butt;stroke-linejoin:miter;stroke-miterlimit:10;stroke-dasharray:none;stroke-opacity:1"
       transform="matrix(1.3333333,0,0,-1.3333333,5528.7948,826.91347)"
       clip-path="url(#clipPath368)" />
    <path
       id="path369"
       d="m 0,0 c -0.434,2.054 -0.946,4.139 -2.074,5.911 -1.127,1.771 -2.985,3.202 -5.082,3.299 -2.45,0.113 -4.706,-1.645 -5.791,-3.844 -1.085,-2.199 -1.191,-4.753 -0.996,-7.197 0.641,-8.023 4.291,-15.583 9.198,-21.962 3.146,-4.091 6.859,-8.107 10.878,-11.524 0.926,-0.788 2.297,0.167 1.875,1.308 C 3.904,-22.916 2.477,-11.73 0,0"
       style="fill:#7c569c;fill-opacity:1;fill-rule:nonzero;stroke:#231f20;stroke-width:1;stroke-linecap:butt;stroke-linejoin:miter;stroke-miterlimit:10;stroke-dasharray:none;stroke-opacity:1"
       transform="matrix(1.3333333,0,0,-1.3333333,5930.66,592.08653)"
       clip-path="url(#clipPath370)" />
  </g>
</svg>
