<svg xmlns="http://www.w3.org/2000/svg" width="426" height="179" fill="none" viewBox="0 0 426 179"><path fill="#836496" fill-rule="evenodd" d="M13.03 53.785c8.102 1.154 16.203 1.956 24.302 2.49.037 6.811 1.61 10.316 3.646 12.221a78 78 0 0 0-.497 7.121c-.292 11.011 2.874 14.39 6.125 15.718l-.773-.096c-4.273-.533-8.545-1.065-12.813-1.446-6.866-.61-11.347 8.891-11.485 25.231-.13 14.658 5.698 15.693 9.678 16.399q.42.074.808.149c4.412.877 8.825 1.602 13.24 2.198-2.93 4.044-4.7 11.587-4.848 21.827-.22 14.657 5.385 15.729 9.212 16.461q.41.077.789.156c24.218 5.146 48.548 5.327 72.863 5.007 7.41-.097 17.735.301 24.807.574 2.962.114 5.354.206 6.721.231.513.007 1.003-.19 1.448-.37.399-.161.763-.308 1.077-.282 10.809.989 22.242.807 33.683.624 6.206-.099 12.414-.198 18.526-.111 3.172.048 6.35-.42 9.526-.888a135 135 0 0 1 4.244-.58c2.971.918 5.923.161 8.865-.594 1.395-.357 2.787-.714 4.178-.892 11.618-1.484 23.252-1.456 34.89-1.428 4.242.01 8.485.021 12.728-.042 7.012-.106 14.026-.181 21.04-.257 18.86-.204 37.724-.407 56.581-1.186 1.32-.052 2.634.225 3.944.501 3.936.828 7.831 1.648 11.702-6.479.069-.139.208-.361.277-.472h.001c1.146-1.808 1.265-4.732 1.384-7.65.058-1.425.116-2.848.294-4.14 2.441-17.907.638-23.594-6.339-20.973-1.365.514-2.81-.058-4.211-.613l-.45-.177c-3.085-1.196-7.985-1.475-11.598-1.68-.577-.032-1.122-.063-1.621-.096-2.194-.139-4.504.516-6.764 1.157-2.24.635-4.431 1.256-6.413 1.076-5.293-.489-10.582-1.233-15.869-2.03 9.706-.231 19.411-.534 29.116-.981 1.37-.062 2.738.206 4.1.474 4.084.801 8.128 1.595 12.101-6.549.043-.11.148-.271.224-.389q.031-.047.053-.083c1.179-1.824 1.285-4.764 1.391-7.694.051-1.415.102-2.827.274-4.11.838-6.229 1.156-10.979.911-14.414 3.742.778 7.456 1.031 11.252-6.502.051-.101.145-.246.219-.36h.001l.072-.112c1.195-1.802 1.353-4.73 1.511-7.654.076-1.418.152-2.835.347-4.122q.2-1.308.366-2.53c.849-.971 1.702-2.24 2.561-3.879.05-.1.145-.246.219-.36l.072-.112c1.23-1.788 1.409-4.71 1.587-7.626.087-1.424.173-2.847.383-4.136 1.132-7.002 1.546-12.14 1.188-15.648q4.358-.236 8.715-.497c1.654-.101 3.312.13 4.964.362 4.942.691 9.836 1.376 14.441-6.868.083-.138.249-.374.333-.485 1.372-1.848 1.437-4.784 1.503-7.711.031-1.422.063-2.842.244-4.135 2.525-17.976.097-23.608-8.558-20.75-1.681.56-3.485.047-5.251-.455l-.602-.17c-3.891-1.1-10.043-1.21-14.571-1.291-.719-.013-1.397-.025-2.019-.04-2.751-.07-5.622.662-8.43 1.377-2.784.71-5.507 1.403-7.993 1.286-8.45-.397-16.907-1.205-25.363-2.013C338.494 1.044 325.699-.18 312.93.022c-14.218.216-28.413 1.679-42.609 3.14-10.331 1.065-20.662 2.129-31.003 2.713-13.665.776-27.341 1.07-41.017 1.365-12.491.269-24.982.538-37.464 1.174-9.478.483-18.961.64-28.445.796-19.651.325-39.304.65-58.913 3.878-14.765 2.432-29.721 1.22-44.664.01-5.174-.42-10.346-.838-15.508-1.106C5.013 11.548-.189 21.175.005 37.514.186 52.16 7.234 53.048 12.04 53.654q.515.065.99.13" clip-rule="evenodd"/></svg>