<svg xmlns="http://www.w3.org/2000/svg" id="svg1" width="1155.519" height="857.052" viewBox="0 0 1155.519 857.052"><defs id="defs1"><clipPath id="clipPath300" clipPathUnits="userSpaceOnUse"><path id="path300" d="M0 642.789h866.639V0H0Z" transform="translate(-472.34 -159.47)"/></clipPath><clipPath id="clipPath302" clipPathUnits="userSpaceOnUse"><path id="path302" d="M0 642.789h866.639V0H0Z" transform="translate(-498.243 -174.345)"/></clipPath><clipPath id="clipPath304" clipPathUnits="userSpaceOnUse"><path id="path304" d="M0 642.789h866.639V0H0Z" transform="translate(-489.1 -177.63)"/></clipPath><clipPath id="clipPath306" clipPathUnits="userSpaceOnUse"><path id="path306" d="M0 642.789h866.639V0H0Z" transform="translate(-489.356 -233.141)"/></clipPath><clipPath id="clipPath308" clipPathUnits="userSpaceOnUse"><path id="path308" d="M0 642.789h866.639V0H0Z" transform="translate(-450.925 -196.848)"/></clipPath><clipPath id="clipPath310" clipPathUnits="userSpaceOnUse"><path id="path310" d="M0 642.789h866.639V0H0Z" transform="translate(-445.043 -224.927)"/></clipPath><clipPath id="clipPath312" clipPathUnits="userSpaceOnUse"><path id="path312" d="M0 642.789h866.639V0H0Z" transform="translate(-454.51 -236.5)"/></clipPath><clipPath id="clipPath314" clipPathUnits="userSpaceOnUse"><path id="path314" d="M0 642.789h866.639V0H0Z" transform="translate(-469.576 -235.13)"/></clipPath><clipPath id="clipPath316" clipPathUnits="userSpaceOnUse"><path id="path316" d="M0 642.789h866.639V0H0Z" transform="translate(-469.576 -235.13)"/></clipPath><clipPath id="clipPath318" clipPathUnits="userSpaceOnUse"><path id="path318" d="M0 642.789h866.639V0H0Z" transform="translate(-441.995 -232.592)"/></clipPath><clipPath id="clipPath320" clipPathUnits="userSpaceOnUse"><path id="path320" d="M0 642.789h866.639V0H0Z" transform="translate(-499.956 -243.572)"/></clipPath><clipPath id="clipPath322" clipPathUnits="userSpaceOnUse"><path id="path322" d="M0 642.789h866.639V0H0Z" transform="translate(-436.203 -199.044)"/></clipPath><clipPath id="clipPath324" clipPathUnits="userSpaceOnUse"><path id="path324" d="M0 642.789h866.639V0H0Z" transform="translate(-426.91 -178.055)"/></clipPath><clipPath id="clipPath326" clipPathUnits="userSpaceOnUse"><path id="path326" d="M0 642.789h866.639V0H0Z" transform="translate(-457.174 -162.419)"/></clipPath><clipPath id="clipPath328" clipPathUnits="userSpaceOnUse"><path id="path328" d="M0 642.789h866.639V0H0Z" transform="translate(-515.902 -240.526)"/></clipPath><clipPath id="clipPath330" clipPathUnits="userSpaceOnUse"><path id="path330" d="M0 642.789h866.639V0H0Z" transform="translate(-526.06 -227.532)"/></clipPath><clipPath id="clipPath332" clipPathUnits="userSpaceOnUse"><path id="path332" d="M0 642.789h866.639V0H0Z" transform="translate(-528.936 -213.638)"/></clipPath><clipPath id="clipPath334" clipPathUnits="userSpaceOnUse"><path id="path334" d="M0 642.789h866.639V0H0Z" transform="translate(-460.1 -242.959)"/></clipPath><clipPath id="clipPath336" clipPathUnits="userSpaceOnUse"><path id="path336" d="M0 642.789h866.639V0H0Z" transform="translate(-449.645 -214.472)"/></clipPath><clipPath id="clipPath338" clipPathUnits="userSpaceOnUse"><path id="path338" d="M0 642.789h866.639V0H0Z" transform="translate(-467.253 -225.706)"/></clipPath><clipPath id="clipPath340" clipPathUnits="userSpaceOnUse"><path id="path340" d="M0 642.789h866.639V0H0Z" transform="translate(-447.727 -162.038)"/></clipPath><clipPath id="clipPath342" clipPathUnits="userSpaceOnUse"><path id="path342" d="M0 642.789h866.639V0H0Z" transform="translate(-498.314 -171.72)"/></clipPath><clipPath id="clipPath344" clipPathUnits="userSpaceOnUse"><path id="path344" d="M0 642.789h866.639V0H0Z" transform="translate(-437.886 -190.021)"/></clipPath><clipPath id="clipPath346" clipPathUnits="userSpaceOnUse"><path id="path346" d="M0 642.789h866.639V0H0Z" transform="translate(-451.293 -188.248)"/></clipPath><clipPath id="clipPath348" clipPathUnits="userSpaceOnUse"><path id="path348" d="M0 642.789h866.639V0H0Z" transform="translate(-488.644 -219.399)"/></clipPath><clipPath id="clipPath350" clipPathUnits="userSpaceOnUse"><path id="path350" d="M0 642.789h866.639V0H0Z" transform="translate(-490.635 -213.174)"/></clipPath><clipPath id="clipPath352" clipPathUnits="userSpaceOnUse"><path id="path352" d="M0 642.789h866.639V0H0Z" transform="translate(-317.608 -612.681)"/></clipPath><clipPath id="clipPath354" clipPathUnits="userSpaceOnUse"><path id="path354" d="M0 642.789h866.639V0H0Z" transform="translate(-316.387 -595.08)"/></clipPath><clipPath id="clipPath356" clipPathUnits="userSpaceOnUse"><path id="path356" d="M0 642.789h866.639V0H0Z" transform="translate(-762.59 -380)"/></clipPath><clipPath id="clipPath358" clipPathUnits="userSpaceOnUse"><path id="path358" d="M0 642.789h866.639V0H0Z" transform="translate(-761.37 -362.398)"/></clipPath><clipPath id="clipPath360" clipPathUnits="userSpaceOnUse"><path id="path360" d="M0 642.789h866.639V0H0Z" transform="translate(-74.295 -87.356)"/></clipPath><clipPath id="clipPath362" clipPathUnits="userSpaceOnUse"><path id="path362" d="M0 642.789h866.639V0H0Z" transform="translate(-103.312 -34.8)"/></clipPath><clipPath id="clipPath364" clipPathUnits="userSpaceOnUse"><path id="path364" d="M0 642.789h866.639V0H0Z" transform="translate(-758.751 -399.741)"/></clipPath><clipPath id="clipPath366" clipPathUnits="userSpaceOnUse"><path id="path366" d="M0 642.789h866.639V0H0Z" transform="translate(-791.25 -351.43)"/></clipPath><clipPath id="clipPath368" clipPathUnits="userSpaceOnUse"><path id="path368" d="M0 642.789h866.639V0H0Z" transform="translate(-95.586 -22.604)"/></clipPath><clipPath id="clipPath370" clipPathUnits="userSpaceOnUse"><path id="path370" d="M0 642.789h866.639V0H0Z" transform="translate(-396.985 -198.724)"/></clipPath></defs><g id="layer-MC5" transform="translate(-5401.35)"><path id="path299" d="M0 0c-2.229.247-4.454-.375-6.601-1.022-9.165-2.762-19.094-6.103-28.024-2.653-2.76 1.067-5.243 2.735-7.645 4.464C-53.022 8.53-63.14 18.53-66.271 31.404c-3.031 12.46 1.124 25.885 8.698 36.233s18.252 18.005 29.317 24.488c7.906 4.633 16.18 8.789 25.031 11.164s18.356 2.896 27.145.302c15.702-4.633 29.984-17.376 35.083-32.933 3.819-11.656 5.07-26.673-3.261-35.675-2.172-2.347-8.794-5.157-8.992-8.349-.261-4.229 3.946-8.249 4.401-12.679.401-3.895-1.203-8.272-4.749-9.933-3.027-1.417-6.565-.577-9.845.069-4.805.947-8.931.405-11.974-3.675-2.576-3.455-3.886-8.387-8.064-10.36-2.151-1.017-4.799-.902-6.855.296C5.164-7.026 6.237-.69 0 0" clip-path="url(#clipPath300)" style="fill:#fbd66d;fill-opacity:1;fill-rule:nonzero;stroke:#231f20;stroke-width:1px;stroke-linecap:butt;stroke-linejoin:miter;stroke-miterlimit:10;stroke-dasharray:none;stroke-opacity:1" transform="matrix(1.33333 0 0 -1.33333 6031.13 644.426)"/><path id="path301" d="M0 0q.082.023.164.05c.394.128.819.366.913.753.058.241-.029.48-.12.702C-.385 4.77-2.761 7.515-5.658 9.58a27.5 27.5 0 0 1-4.822 2.729c-1.185.524-3.457 1.893-4.705.646-1.393-1.394-1.135-3.431-1.138-5.121-.003-2.032-.178-4.074-.107-6.101.09-2.565.615-5.185 2.206-7.152.488-.602 1.164-1.169 1.988-1.12.654.038 1.255.471 1.646 1 .956 1.293 1.092 2.95 2.196 4.192C-6.148 1.179-2.759-.777 0 0" clip-path="url(#clipPath302)" style="fill:#f0432b;fill-opacity:1;fill-rule:nonzero;stroke:#231f20;stroke-width:1px;stroke-linecap:butt;stroke-linejoin:miter;stroke-miterlimit:10;stroke-dasharray:none;stroke-opacity:1" transform="matrix(1.33333 0 0 -1.33333 6065.67 624.592)"/><path id="path303" d="M0 0a4.4 4.4 0 0 1 2.509.008c-.256 2.205-2.066 4.139-4.25 4.54-.285.052-.59.079-.856-.038-.53-.232-.68-.904-.721-1.482a12.8 12.8 0 0 1 .843-5.537A4.08 4.08 0 0 1 .193.022" clip-path="url(#clipPath304)" style="fill:#231f20;fill-opacity:1;fill-rule:nonzero;stroke:#231f20;stroke-width:1px;stroke-linecap:butt;stroke-linejoin:miter;stroke-miterlimit:10;stroke-dasharray:none;stroke-opacity:1" transform="matrix(1.33333 0 0 -1.33333 6053.48 620.212)"/><path id="path305" d="M0 0q.051.202.101.341C.821 2.32 2.692 3.992 4.818 4.21c.963.098 1.951-.144 2.79-.63 1.226-.71 2.736-.558 3.726.456.996 1.02 2.359 1.686 3.789 1.706 2.108.031 4.113-1.343 5.024-3.223.461-.951 1.413-1.568 2.466-1.664 3.944-.361 7.524-4.216 7.056-8.251-.117-1.012-.433-2.082-.019-3.013.297-.67.918-1.126 1.447-1.633 2.332-2.234 2.893-6.014 1.555-8.916-.411-.89-.393-1.878-.02-2.784.499-1.212.248-2.805-.554-3.912-.832-1.149-2.062-1.901-3.361-2.514-.812-.384-1.447-1.083-1.702-1.944-.525-1.772-1.402-3.447-2.828-4.594-1.205-.97-2.87-1.441-4.365-1.192-1.2.2-2.365-.328-3.1-1.297-.994-1.311-2.419-2.27-4.042-2.42-2.257-.208-5.388 2.449-7.385 3.001-2.607.722-3.977-.859-6.721-.532-2.488.297-4.977 1.142-6.848 2.809-2.581 2.301-2.657 5.204-3.588 8.27-.633 2.084-2.288 3.404-2.953 5.442-1.142 3.503 2.055 7.072 5.493 7.333.636.048 1.413.074 1.709.64.223.426.039.939-.097 1.4-.986 3.348-1.847 7.851 4.634 7.954 1.443.023 2.531 1.365 2.66 2.802C-.324-1.475-.127-.506 0 0" clip-path="url(#clipPath306)" style="fill:#7c569c;fill-opacity:1;fill-rule:nonzero;stroke:#231f20;stroke-width:1px;stroke-linecap:butt;stroke-linejoin:miter;stroke-miterlimit:10;stroke-dasharray:none;stroke-opacity:1" transform="matrix(1.33333 0 0 -1.33333 6053.82 546.197)"/><path id="path307" d="M0 0c-2.655 1.033-10.516 5.616-13.267 4.877a32.5 32.5 0 0 0 2.086-6.77c.07-.361.125-.764-.075-1.073-.219-.337-.659-.436-1.054-.507l-9.303-1.669 5.734-2.272c-3.401-1.459-6.204-4.263-7.663-7.665a10.44 10.44 0 0 0 7.183 1.322c-2.241-2.349-3.374-5.711-3.013-8.936a10.06 10.06 0 0 0 4.922 2.528 21.5 21.5 0 0 1 .507-8.847 12.05 12.05 0 0 0 4.502 4.247 22.1 22.1 0 0 1 2.352-8.004 14.24 14.24 0 0 0 3.197 6.466l3.973-6.894c.431 2.272.987 4.749 2.36 6.661.373.517.517 1.835 1.131 1.495.374-.206 1.025-1.608 1.294-1.94 1.446-1.785 3.614-4.117 5.824-4.906.457 3.48-.15 7.025.633 10.476" clip-path="url(#clipPath308)" style="fill:#4e3f80;fill-opacity:1;fill-rule:nonzero;stroke:#231f20;stroke-width:1px;stroke-linecap:butt;stroke-linejoin:miter;stroke-miterlimit:10;stroke-dasharray:none;stroke-opacity:1" transform="matrix(1.33333 0 0 -1.33333 6002.58 594.588)"/><path id="path309" d="M0 0c-2 .705-4.101.962-6.167.165-1.079-.417-2.051-1.305-2.236-2.446-.424-2.614 2.307-4.331 4.551-4.578 1.714-.189 3.434.19 5.122.544.956.201 1.917.394 2.891.473 1.006.083 1.945-.107 2.94-.14.42-.014.665.263.617.684-.025.221-.127.425-.241.615-.767 1.279-2.092 2.069-3.342 2.809C2.833-1.104 1.425-.502 0 0" clip-path="url(#clipPath310)" style="fill:#f0432b;fill-opacity:1;fill-rule:nonzero;stroke:#231f20;stroke-width:1px;stroke-linecap:butt;stroke-linejoin:miter;stroke-miterlimit:10;stroke-dasharray:none;stroke-opacity:1" transform="matrix(1.33333 0 0 -1.33333 5994.74 557.15)"/><path id="path311" d="M0 0c-.916 1.913-2.219 3.58-4.245 4.477-1.057.469-2.372.528-3.31-.148-2.148-1.549-1.43-4.694-.019-6.455 1.079-1.346 2.563-2.294 4.007-3.237.817-.534 1.633-1.077 2.379-1.71C-.419-7.726.111-8.525.791-9.252c.287-.306.656-.283.92.048.139.174.211.39.265.605.362 1.448-.016 2.943-.377 4.35C1.223-2.784.652-1.362 0 0" clip-path="url(#clipPath312)" style="fill:#f0432b;fill-opacity:1;fill-rule:nonzero;stroke:#231f20;stroke-width:1px;stroke-linecap:butt;stroke-linejoin:miter;stroke-miterlimit:10;stroke-dasharray:none;stroke-opacity:1" transform="matrix(1.33333 0 0 -1.33333 6007.36 541.717)"/><path id="path313" d="M0 0c.705 2 .962 4.101.165 6.167-.417 1.079-1.305 2.051-2.446 2.236-2.614.424-4.331-2.307-4.578-4.551-.189-1.714.19-3.434.544-5.122.201-.956.394-1.917.473-2.891.083-1.006-.107-1.945-.14-2.94-.014-.42.263-.665.684-.617.221.025.425.127.615.241 1.279.767 2.069 2.092 2.809 3.342C-1.104-2.833-.502-1.425 0 0" clip-path="url(#clipPath314)" style="fill:#f0432b;fill-opacity:1;fill-rule:nonzero;stroke:none" transform="matrix(1.33333 0 0 -1.33333 6027.45 543.546)"/><path id="path315" d="M0 0c.705 2 .962 4.101.165 6.167-.417 1.079-1.305 2.051-2.446 2.236-2.614.424-4.331-2.307-4.578-4.551-.189-1.714.19-3.434.544-5.122.201-.956.394-1.917.473-2.891.083-1.006-.107-1.945-.14-2.94-.014-.42.263-.665.684-.617.221.025.425.127.615.241 1.279.767 2.069 2.092 2.809 3.342C-1.104-2.833-.502-1.425 0 0Z" clip-path="url(#clipPath316)" style="fill:none;stroke:#231f20;stroke-width:1px;stroke-linecap:butt;stroke-linejoin:miter;stroke-miterlimit:10;stroke-dasharray:none;stroke-opacity:1" transform="matrix(1.33333 0 0 -1.33333 6027.45 543.546)"/><path id="path317" d="M0 0a2.358 2.358 0 1 0-4.093-2.344A2.358 2.358 0 0 0 0 0" clip-path="url(#clipPath318)" style="fill:#f0c02f;fill-opacity:1;fill-rule:nonzero;stroke:#231f20;stroke-width:1px;stroke-linecap:butt;stroke-linejoin:miter;stroke-miterlimit:10;stroke-dasharray:none;stroke-opacity:1" transform="matrix(1.33333 0 0 -1.33333 5990.67 546.93)"/><path id="path319" d="M0 0a2.358 2.358 0 1 0-4.093-2.344A2.358 2.358 0 0 0 0 0" clip-path="url(#clipPath320)" style="fill:#cc5048;fill-opacity:1;fill-rule:nonzero;stroke:#231f20;stroke-width:1px;stroke-linecap:butt;stroke-linejoin:miter;stroke-miterlimit:10;stroke-dasharray:none;stroke-opacity:1" transform="matrix(1.33333 0 0 -1.33333 6067.96 532.29)"/><path id="path321" d="M0 0a2.358 2.358 0 1 0-4.093-2.344A2.358 2.358 0 0 0 0 0" clip-path="url(#clipPath322)" style="fill:#cc5048;fill-opacity:1;fill-rule:nonzero;stroke:#231f20;stroke-width:1px;stroke-linecap:butt;stroke-linejoin:miter;stroke-miterlimit:10;stroke-dasharray:none;stroke-opacity:1" transform="matrix(1.33333 0 0 -1.33333 5982.95 591.66)"/><path id="path323" d="M0 0a2.358 2.358 0 1 0-4.093-2.344A2.358 2.358 0 0 0 0 0" clip-path="url(#clipPath324)" style="fill:#cc5048;fill-opacity:1;fill-rule:nonzero;stroke:#231f20;stroke-width:1px;stroke-linecap:butt;stroke-linejoin:miter;stroke-miterlimit:10;stroke-dasharray:none;stroke-opacity:1" transform="matrix(1.33333 0 0 -1.33333 5970.56 619.646)"/><path id="path325" d="M0 0a2.358 2.358 0 1 0-4.093-2.344A2.358 2.358 0 0 0 0 0" clip-path="url(#clipPath326)" style="fill:#cc5048;fill-opacity:1;fill-rule:nonzero;stroke:#231f20;stroke-width:1px;stroke-linecap:butt;stroke-linejoin:miter;stroke-miterlimit:10;stroke-dasharray:none;stroke-opacity:1" transform="matrix(1.33333 0 0 -1.33333 6010.91 640.494)"/><path id="path327" d="M0 0a2.358 2.358 0 1 0-4.093-2.344A2.358 2.358 0 0 0 0 0" clip-path="url(#clipPath328)" style="fill:#cc5048;fill-opacity:1;fill-rule:nonzero;stroke:#231f20;stroke-width:1px;stroke-linecap:butt;stroke-linejoin:miter;stroke-miterlimit:10;stroke-dasharray:none;stroke-opacity:1" transform="matrix(1.33333 0 0 -1.33333 6089.22 536.351)"/><path id="path329" d="M0 0a2.358 2.358 0 1 0-4.093-2.344A2.358 2.358 0 0 0 0 0" clip-path="url(#clipPath330)" style="fill:#cc5048;fill-opacity:1;fill-rule:nonzero;stroke:#231f20;stroke-width:1px;stroke-linecap:butt;stroke-linejoin:miter;stroke-miterlimit:10;stroke-dasharray:none;stroke-opacity:1" transform="matrix(1.33333 0 0 -1.33333 6102.76 553.676)"/><path id="path331" d="M0 0a2.358 2.358 0 1 0-4.093-2.344A2.358 2.358 0 0 0 0 0" clip-path="url(#clipPath332)" style="fill:#cc5048;fill-opacity:1;fill-rule:nonzero;stroke:#231f20;stroke-width:1px;stroke-linecap:butt;stroke-linejoin:miter;stroke-miterlimit:10;stroke-dasharray:none;stroke-opacity:1" transform="matrix(1.33333 0 0 -1.33333 6106.59 572.201)"/><path id="path333" d="M0 0a2.358 2.358 0 1 0-4.093-2.344A2.358 2.358 0 0 0 0 0" clip-path="url(#clipPath334)" style="fill:#f0c02f;fill-opacity:1;fill-rule:nonzero;stroke:#231f20;stroke-width:1px;stroke-linecap:butt;stroke-linejoin:miter;stroke-miterlimit:10;stroke-dasharray:none;stroke-opacity:1" transform="matrix(1.33333 0 0 -1.33333 6014.81 533.107)"/><path id="path335" d="M0 0c-.205-1.222-.821-1.648-1.552-2.049-.705-.422-1.448-.858-2.265-1.236-1.654-.779-3.754-1.113-5.551-.598-1.657.443-2.912 1.235-4.538 1.474-1.462.244-3.045.157-4.47-.35-2.097-.547-3.767-3.366-1.788-4.946 2.013-1.497 4.584.112 5.381 2.239.609 1.427.667 3.037.671 4.64l.999-.059c-.187-1.607-.358-3.297-1.072-4.849-.93-2.359-4.008-4.16-6.343-2.468-1.61 1.068-1.507 3.45-.352 4.83 1.746 2.016 4.54 2.644 7.123 2.649 3.029-.092 5.884-1.867 8.724-.028C-3.456-.154-2.55 1.557-.485.874Z" clip-path="url(#clipPath336)" style="fill:#231f20;fill-opacity:1;fill-rule:nonzero;stroke:none" transform="matrix(1.33333 0 0 -1.33333 6000.87 571.09)"/><path id="path337" d="M0 0c.237 1.263 1.002 1.677 1.718 2.001 1.897.945 3.855 2.026 4.647 4.012.569 1.417.899 3.229 1.73 4.624 1.312 2.225 3.269 4.317 5.891 4.802 3.153.466 5.17-2.611 3.274-5.234-2.367-2.976-6.538-1.563-9.351-.205l.455.891c2.445-1.562 6.297-2.993 8.429-.348.871 1.156.809 3.06-.569 3.774-2.931 1.438-5.668-1.918-6.599-4.405-.616-1.523-.569-3.006-1.026-4.66C8.134 3.443 6.782 1.799 5.274.768 4.534.254 3.782-.166 3.061-.56 2.345-.987 1.666-1.303.508-.861Z" clip-path="url(#clipPath338)" style="fill:#231f20;fill-opacity:1;fill-rule:nonzero;stroke:none" transform="matrix(1.33333 0 0 -1.33333 6024.35 556.11)"/><path id="path339" d="M0 0c-.705-1.657-1.244-4.516-3.604-4.626-2.945.117-6.194 4.571-5.969 7.354l.874.487c2.261-1.226 2.893-3.626 4.326-5.369.664-.758 1.084-1.207 1.999-.513C-1.559-2.005-.898-.918-.525.19Z" clip-path="url(#clipPath340)" style="fill:#231f20;fill-opacity:1;fill-rule:nonzero;stroke:none" transform="matrix(1.33333 0 0 -1.33333 5998.32 641.002)"/><path id="path341" d="M0 0c1.145-.239 2.416-.219 3.4.149 1.062.438.887 1.027.569 1.983-.777 2.12-2.527 3.877-2.44 6.448l.862.508C5.037 7.931 7.98 1.107 4.744-.671 3.15-1.382 1.403-.734-.102-.549Z" clip-path="url(#clipPath342)" style="fill:#231f20;fill-opacity:1;fill-rule:nonzero;stroke:none" transform="matrix(1.33333 0 0 -1.33333 6065.77 628.093)"/><path id="path343" d="M0 0c-.639-1.275-.794-2.735-.85-4.16-.21-5.285 1.287-11.307 5.945-13.813 4.151-2.233 9.274-.886 13.646.877a83 83 0 0 1 10.621 5.187c1.601.928 3.229 1.967 4.194 3.547.947 1.549 1.141 3.446 1.063 5.26-.156 3.626-1.566 7.505-4.729 9.285-2 1.126-4.398 1.253-6.692 1.226C16.494 7.328 3.625 7.23 0 0" clip-path="url(#clipPath344)" style="fill:#231f20;fill-opacity:1;fill-rule:nonzero;stroke:none" transform="matrix(1.33333 0 0 -1.33333 5985.2 603.69)"/><path id="path345" d="M0 0c-.296-.591-.368-1.268-.394-1.929-.097-2.451.597-5.243 2.756-6.405 1.925-1.036 4.301-.411 6.328.406a39 39 0 0 1 4.925 2.406c.743.43 1.498.912 1.945 1.644.439.719.529 1.598.493 2.44-.072 1.681-.726 3.48-2.193 4.305-.927.522-2.039.581-3.103.568C7.648 3.398 1.681 3.353 0 0" clip-path="url(#clipPath346)" style="fill:#f0c02f;fill-opacity:1;fill-rule:nonzero;stroke:#231f20;stroke-width:.81px;stroke-linecap:butt;stroke-linejoin:miter;stroke-miterlimit:10;stroke-dasharray:none;stroke-opacity:1" transform="matrix(1.33333 0 0 -1.33333 6003.07 606.054)"/><path id="path347" d="M0 0c2.359 3.983 5.174 8.018 9.396 9.916 6.22 2.796 14.47-.647 16.82-7.048.76-2.072.955-4.31.946-6.517-.009-2.239-.229-4.516-1.079-6.587-2.322-5.661-8.669-8.475-14.618-9.903-3.834-.92-7.976-1.475-11.635-.006C-10.373-16.048-3.62-6.113 0 0" clip-path="url(#clipPath348)" style="fill:#231f20;fill-opacity:1;fill-rule:nonzero;stroke:none" transform="matrix(1.33333 0 0 -1.33333 6052.87 564.52)"/><path id="path349" d="M0 0c1.179 1.991 2.587 4.009 4.698 4.958 3.11 1.398 7.235-.323 8.41-3.524.38-1.036.477-2.155.473-3.258-.004-1.12-.114-2.258-.539-3.294-1.162-2.83-4.335-4.237-7.31-4.951-1.917-.461-3.988-.738-5.817-.003C-5.186-8.024-1.81-3.056 0 0" clip-path="url(#clipPath350)" style="fill:#f0c02f;fill-opacity:1;fill-rule:nonzero;stroke:#231f20;stroke-width:1px;stroke-linecap:butt;stroke-linejoin:miter;stroke-miterlimit:10;stroke-dasharray:none;stroke-opacity:1" transform="matrix(1.33333 0 0 -1.33333 6055.53 572.82)"/><path id="path351" d="M0 0c1.331.532 2.746.844 4.174.794C7.975.66 15.365-3.359 15.706-7.674c.149-1.888-1.243-3.516-1.796-5.328-.641-2.101-.124-4.367.501-6.473.624-2.106 1.363-4.257 1.154-6.443-.444-4.64-5.815-5.96-9.694-6.384-2.058-.225-4.677-.266-6.049-2.087-.995-1.321-.895-3.17-.453-4.763C-.188-40.745.55-42.271.702-43.918c.534-5.797-6.125-4.319-9.764-4.252-3.177.059-6.294-1.515-9.434-1.023-1.937.304-3.66 1.368-5.295 2.451-2.339 1.55-4.848 3.585-4.97 6.388-.054 1.226.377 2.424.428 3.65.198 4.672-4.909 1.001-6.844-.031-.49-.262-1.002-.529-1.556-.546-.758-.023-1.441.421-2.068.848-1.877 1.279-3.824 2.633-4.907 4.63-1.69 3.119-.876 7.006-1.892 10.405-.532 1.778-1.551 3.371-2.203 5.108-.652 1.738-.894 3.798.093 5.37.559.89 1.445 1.518 2.326 2.091A48 48 0 0 0-36.81-4.4c1.309.517 2.193 1.222 2.416 2.703.133.879.022 1.773-.034 2.66-.138 2.203.135 4.59 1.585 6.255 1.567 1.8 4.116 2.335 6.489 2.587 3.53.375 6.856 1.16 9.765 3.305.557.41 1.126.874 1.812.961.968.123 1.853-.535 2.548-1.22 2.094-2.067 3.51-4.671 4.785-7.292.726-1.494 2.333-7.079 4.379-6.882.574.055 1.088.362 1.596.635C-.994-.433-.503-.201 0 0" clip-path="url(#clipPath352)" style="fill:#f0432b;fill-opacity:1;fill-rule:nonzero;stroke:#231f20;stroke-width:1px;stroke-linecap:butt;stroke-linejoin:miter;stroke-miterlimit:10;stroke-dasharray:none;stroke-opacity:1" transform="matrix(1.33333 0 0 -1.33333 5824.83 40.144)"/><path id="path353" d="M0 0c0-6.982-5.66-12.643-12.643-12.643-6.982 0-12.643 5.661-12.643 12.643s5.661 12.643 12.643 12.643S0 6.982 0 0" clip-path="url(#clipPath354)" style="fill:#f0c02f;fill-opacity:1;fill-rule:nonzero;stroke:#231f20;stroke-width:1px;stroke-linecap:butt;stroke-linejoin:miter;stroke-miterlimit:10;stroke-dasharray:none;stroke-opacity:1" transform="matrix(1.33333 0 0 -1.33333 5823.2 63.612)"/><path id="path355" d="M0 0c1.331.532 2.746.844 4.174.794C7.975.66 15.365-3.359 15.706-7.674c.149-1.888-1.243-3.516-1.796-5.328-.641-2.101-.124-4.367.501-6.473.624-2.106 1.363-4.257 1.154-6.443-.444-4.64-5.815-5.96-9.694-6.384-2.058-.225-4.677-.266-6.049-2.087-.995-1.321-.895-3.17-.453-4.763C-.188-40.745.55-42.271.702-43.918c.534-5.797-6.125-4.319-9.764-4.252-3.177.059-6.294-1.516-9.434-1.023-1.937.304-3.66 1.368-5.295 2.451-2.339 1.55-4.848 3.585-4.97 6.388-.054 1.226.377 2.424.428 3.65.198 4.672-4.909 1.001-6.844-.031-.49-.262-1.002-.529-1.556-.546-.758-.023-1.441.421-2.068.848-1.877 1.279-3.824 2.633-4.907 4.63-1.69 3.119-.876 7.006-1.892 10.405-.532 1.778-1.551 3.371-2.203 5.108-.652 1.738-.894 3.798.093 5.37.559.89 1.445 1.518 2.326 2.091A48 48 0 0 0-36.81-4.4c1.309.517 2.193 1.222 2.416 2.703.133.879.022 1.773-.034 2.66-.138 2.203.135 4.59 1.585 6.255 1.567 1.8 4.116 2.335 6.489 2.587 3.529.375 6.856 1.159 9.765 3.305.557.41 1.126.874 1.812.961.968.123 1.853-.535 2.548-1.22 2.094-2.067 3.51-4.671 4.785-7.292.725-1.494 2.333-7.079 4.379-6.882.574.055 1.088.362 1.596.635C-.994-.433-.503-.201 0 0" clip-path="url(#clipPath356)" style="fill:#7c569c;fill-opacity:1;fill-rule:nonzero;stroke:#231f20;stroke-width:1px;stroke-linecap:butt;stroke-linejoin:miter;stroke-miterlimit:10;stroke-dasharray:none;stroke-opacity:1" transform="matrix(1.33333 0 0 -1.33333 6418.14 350.386)"/><path id="path357" d="M0 0c0-6.982-5.66-12.643-12.643-12.643-6.982 0-12.643 5.661-12.643 12.643s5.661 12.643 12.643 12.643S0 6.982 0 0" clip-path="url(#clipPath358)" style="fill:#f0c02f;fill-opacity:1;fill-rule:nonzero;stroke:#231f20;stroke-width:1px;stroke-linecap:butt;stroke-linejoin:miter;stroke-miterlimit:10;stroke-dasharray:none;stroke-opacity:1" transform="matrix(1.33333 0 0 -1.33333 6416.51 373.855)"/><path id="path359" d="M0 0c.694 7.661 3.014 14.978 8.764 20.591 3.002 2.931 7.397 4.796 11.442 3.684 9.26-2.546 10.801-14.147 8.232-21.919-1.964-5.94-5.81-11.041-9.526-16.074-2.104-2.849-4.19-5.729-5.923-8.823-1.789-3.194-2.58-6.579-3.972-9.91-.588-1.405-1.872-1.794-3.19-1.001-.689.414-1.21 1.058-1.665 1.721C1.101-27.268.494-21.707-.058-16.466-.634-11.011-.494-5.457 0 0" clip-path="url(#clipPath360)" style="fill:#f0c02f;fill-opacity:1;fill-rule:nonzero;stroke:#231f20;stroke-width:1px;stroke-linecap:butt;stroke-linejoin:miter;stroke-miterlimit:10;stroke-dasharray:none;stroke-opacity:1" transform="matrix(1.33333 0 0 -1.33333 5500.41 740.578)"/><path id="path361" d="M0 0c-.114 1.499.114 3.037.611 4.459 2.133 6.108 14.07 12.747 9.397 19.997-.821 1.274-2.149 2.137-3.525 2.772-1.464.677-3.078 1.145-4.68.959-2.338-.271-4.297-1.875-5.909-3.591-4.561-4.852-6.983-11.35-5.453-17.972C-8.279 1.079-4.678-5.635.414-8.49c.637-.358 1.539-.619 2.018-.067.204.236.264.563.271.875C2.74-6.031 1.546-4.649.828-3.161A8.8 8.8 0 0 0 0 0" clip-path="url(#clipPath362)" style="fill:#7c569c;fill-opacity:1;fill-rule:nonzero;stroke:#231f20;stroke-width:1px;stroke-linecap:butt;stroke-linejoin:miter;stroke-miterlimit:10;stroke-dasharray:none;stroke-opacity:1" transform="matrix(1.33333 0 0 -1.33333 5539.1 810.651)"/><path id="path363" d="M0 0c-1.085 1.04-2.418 1.841-3.833 2.36-6.073 2.23-18.781-2.777-21.415 5.437-.463 1.443-.286 3.017.096 4.484.407 1.56 1.07 3.104 2.231 4.224 1.694 1.634 4.178 2.128 6.527 2.285 6.645.442 13.202-1.812 17.347-7.199C4.423 7.081 7.324.036 6.297-5.711c-.129-.72-.5-1.582-1.231-1.601-.311-.008-.602.153-.847.346-1.3 1.02-1.609 2.82-2.303 4.319A8.8 8.8 0 0 1 0 0" clip-path="url(#clipPath364)" style="fill:#f0c02f;fill-opacity:1;fill-rule:nonzero;stroke:#231f20;stroke-width:1px;stroke-linecap:butt;stroke-linejoin:miter;stroke-miterlimit:10;stroke-dasharray:none;stroke-opacity:1" transform="matrix(1.33333 0 0 -1.33333 6413.02 324.064)"/><path id="path365" d="M0 0c-1.773 16.105 1.504 34.958-12.082 46.888-3.802 3.339-8.084 6.278-11.061 10.442-4.094 5.727-10.967 16.986-3.216 22.319 4.968 3.418 12.988 3.968 18.66 2.226 5.504-1.691 8.952-6.234 11.885-10.916 6.139-9.802 11.52-21.181 12.093-32.923.221-4.548-.45-9.221-2.356-13.382-2.018-4.408-4.807-8.372-6.378-13.028C5.814 6.495 4.961.996 4.873-4.41c-.012-.734-.029-1.527-.477-2.108C1.642-10.088.42-3.816 0 0" clip-path="url(#clipPath366)" style="fill:#f0432b;fill-opacity:1;fill-rule:nonzero;stroke:#231f20;stroke-width:1px;stroke-linecap:butt;stroke-linejoin:miter;stroke-miterlimit:10;stroke-dasharray:none;stroke-opacity:1" transform="matrix(1.33333 0 0 -1.33333 6456.35 388.477)"/><path id="path367" d="M0 0c-11.207 11.701-27.764 21.296-28.185 39.371-.118 5.058.379 10.228-.902 15.184-1.761 6.817-5.978 19.316-15.043 16.798-5.811-1.614-11.382-7.408-13.689-12.875-2.239-5.305-.97-10.865.736-16.12 3.572-11.001 8.838-22.433 17.472-30.412 3.344-3.091 7.358-5.577 11.771-6.788 4.675-1.283 9.505-1.691 14.083-3.476C-8.713-.286-3.949-3.163.252-6.568c.57-.461 1.188-.958 1.921-.988C6.678-7.737 2.656-2.773 0 0" clip-path="url(#clipPath368)" style="fill:#f0432b;fill-opacity:1;fill-rule:nonzero;stroke:#231f20;stroke-width:1px;stroke-linecap:butt;stroke-linejoin:miter;stroke-miterlimit:10;stroke-dasharray:none;stroke-opacity:1" transform="matrix(1.33333 0 0 -1.33333 5528.8 826.913)"/><path id="path369" d="M0 0c-.434 2.054-.946 4.139-2.074 5.911S-5.059 9.113-7.156 9.21c-2.45.113-4.706-1.645-5.791-3.844s-1.191-4.753-.996-7.197c.641-8.023 4.291-15.583 9.198-21.962 3.146-4.091 6.859-8.107 10.878-11.524.926-.788 2.297.167 1.875 1.308C3.904-22.916 2.477-11.73 0 0" clip-path="url(#clipPath370)" style="fill:#7c569c;fill-opacity:1;fill-rule:nonzero;stroke:#231f20;stroke-width:1px;stroke-linecap:butt;stroke-linejoin:miter;stroke-miterlimit:10;stroke-dasharray:none;stroke-opacity:1" transform="matrix(1.33333 0 0 -1.33333 5930.66 592.087)"/></g></svg>